<svg width="48" height="48" viewBox="0 0 48 48" fill="none" xmlns="http://www.w3.org/2000/svg">
<path d="M28.8 28.8C29.48 28.8 30.0504 28.5696 30.5112 28.1088C30.9704 27.6496 31.2 27.08 31.2 26.4V21.6H36C36.68 21.6 37.2496 21.3696 37.7088 20.9088C38.1696 20.4496 38.4 19.88 38.4 19.2C38.4 18.52 38.1696 17.9496 37.7088 17.4888C37.2496 17.0296 36.68 16.8 36 16.8H31.2V12C31.2 11.32 30.9704 10.7496 30.5112 10.2888C30.0504 9.8296 29.48 9.6 28.8 9.6C28.12 9.6 27.5504 9.8296 27.0912 10.2888C26.6304 10.7496 26.4 11.32 26.4 12V16.8H21.6C20.92 16.8 20.3504 17.0296 19.8912 17.4888C19.4304 17.9496 19.2 18.52 19.2 19.2C19.2 19.88 19.4304 20.4496 19.8912 20.9088C20.3504 21.3696 20.92 21.6 21.6 21.6H26.4V26.4C26.4 27.08 26.6304 27.6496 27.0912 28.1088C27.5504 28.5696 28.12 28.8 28.8 28.8ZM14.4 38.4C13.08 38.4 11.9504 37.9304 11.0112 36.9912C10.0704 36.0504 9.6 34.92 9.6 33.6V4.8C9.6 3.48 10.0704 2.3496 11.0112 1.4088C11.9504 0.4696 13.08 0 14.4 0H43.2C44.52 0 45.6504 0.4696 46.5912 1.4088C47.5304 2.3496 48 3.48 48 4.8V33.6C48 34.92 47.5304 36.0504 46.5912 36.9912C45.6504 37.9304 44.52 38.4 43.2 38.4H14.4ZM4.8 48C3.48 48 2.3504 47.5304 1.4112 46.5912C0.4704 45.6504 0 44.52 0 43.2V12C0 11.32 0.2304 10.7496 0.6912 10.2888C1.1504 9.8296 1.72 9.6 2.4 9.6C3.08 9.6 3.6504 9.8296 4.1112 10.2888C4.5704 10.7496 4.8 11.32 4.8 12V43.2H36C36.68 43.2 37.2496 43.4304 37.7088 43.8912C38.1696 44.3504 38.4 44.92 38.4 45.6C38.4 46.28 38.1696 46.8496 37.7088 47.3088C37.2496 47.7696 36.68 48 36 48H4.8Z" fill="white"/>
</svg>
