<svg width="19" height="19" viewBox="0 0 19 19" fill="none" xmlns="http://www.w3.org/2000/svg">
<path d="M3.5 8.55L9 0L14.5 8.55H3.5ZM14.5 19C13.25 19 12.1873 18.5845 11.312 17.7536C10.4373 16.922 10 15.9125 10 14.725C10 13.5375 10.4373 12.528 11.312 11.6964C12.1873 10.8655 13.25 10.45 14.5 10.45C15.75 10.45 16.8127 10.8655 17.688 11.6964C18.5627 12.528 19 13.5375 19 14.725C19 15.9125 18.5627 16.922 17.688 17.7536C16.8127 18.5845 15.75 19 14.5 19ZM0 18.525V10.925H8V18.525H0Z" fill="#FF0000"/>
</svg>
