<svg width="41" height="51" viewBox="0 0 41 51" fill="none" xmlns="http://www.w3.org/2000/svg">
<path d="M17.9587 32.6804V40.7502C17.9587 41.4703 18.2027 42.0735 18.6907 42.5598C19.177 43.0478 19.7802 43.2918 20.5003 43.2918C21.2205 43.2918 21.8245 43.0478 22.3125 42.5598C22.7988 42.0735 23.042 41.4703 23.042 40.7502V32.6804L25.3295 34.9679C25.5837 35.222 25.87 35.4127 26.1886 35.5397C26.5054 35.6668 26.8231 35.7194 27.1417 35.6973C27.4586 35.677 27.7653 35.6033 28.0618 35.4762C28.3583 35.3491 28.6337 35.1585 28.8878 34.9043C29.3538 34.396 29.5978 33.8029 29.6198 33.1252C29.6402 32.4474 29.3962 31.8543 28.8878 31.346L22.2795 24.7377C22.0253 24.4835 21.75 24.303 21.4535 24.1963C21.1569 24.0912 20.8392 24.0387 20.5003 24.0387C20.1614 24.0387 19.8437 24.0912 19.5472 24.1963C19.2507 24.303 18.9753 24.4835 18.7212 24.7377L12.1128 31.346C11.6045 31.8543 11.3613 32.4474 11.3834 33.1252C11.4037 33.8029 11.668 34.396 12.1764 34.9043C12.6847 35.3703 13.2778 35.6143 13.9555 35.6363C14.6333 35.6567 15.2264 35.4127 15.7347 34.9043L17.9587 32.6804ZM5.25033 50.9168C3.85241 50.9168 2.65613 50.4195 1.66149 49.4249C0.665158 48.4285 0.166992 47.2314 0.166992 45.8335V5.16683C0.166992 3.76891 0.665158 2.57179 1.66149 1.57545C2.65613 0.580815 3.85241 0.0834961 5.25033 0.0834961H23.4868C24.1646 0.0834961 24.811 0.21058 25.4261 0.464746C26.0395 0.718913 26.5791 1.07898 27.0451 1.54495L39.3722 13.872C39.8382 14.338 40.1982 14.8777 40.4524 15.4911C40.7066 16.1062 40.8337 16.7526 40.8337 17.4304V45.8335C40.8337 47.2314 40.3363 48.4285 39.3417 49.4249C38.3454 50.4195 37.1482 50.9168 35.7503 50.9168H5.25033ZM23.042 15.3335C23.042 16.0536 23.286 16.6569 23.774 17.1432C24.2603 17.6312 24.8635 17.8752 25.5837 17.8752H35.7503L23.042 5.16683V15.3335Z" fill="#AEAEAE"/>
</svg>
