<svg width="27" height="27" viewBox="0 0 27 27" fill="none" xmlns="http://www.w3.org/2000/svg">
<path d="M18.4737 15.75C19.0895 15.75 19.5987 15.5375 20.0013 15.1125C20.4039 14.6875 20.6053 14.15 20.6053 13.5C20.6053 12.85 20.4039 12.3125 20.0013 11.8875C19.5987 11.4625 19.0895 11.25 18.4737 11.25C17.8579 11.25 17.3487 11.4625 16.9461 11.8875C16.5434 12.3125 16.3421 12.85 16.3421 13.5C16.3421 14.15 16.5434 14.6875 16.9461 15.1125C17.3487 15.5375 17.8579 15.75 18.4737 15.75ZM2.84211 27C2.06053 27 1.39121 26.7065 0.834158 26.1195C0.278052 25.5315 0 24.825 0 24V3C0 2.175 0.278052 1.4685 0.834158 0.8805C1.39121 0.2935 2.06053 0 2.84211 0H22.7368C23.5184 0 24.1877 0.2935 24.7448 0.8805C25.3009 1.4685 25.5789 2.175 25.5789 3V6.75H22.7368V3H2.84211V24H22.7368V20.25H25.5789V24C25.5789 24.825 25.3009 25.5315 24.7448 26.1195C24.1877 26.7065 23.5184 27 22.7368 27H2.84211ZM14.2105 21C13.4289 21 12.7601 20.7065 12.204 20.1195C11.6469 19.5315 11.3684 18.825 11.3684 18V9C11.3684 8.175 11.6469 7.4685 12.204 6.8805C12.7601 6.2935 13.4289 6 14.2105 6H24.1579C24.9395 6 25.6088 6.2935 26.1658 6.8805C26.7219 7.4685 27 8.175 27 9V18C27 18.825 26.7219 19.5315 26.1658 20.1195C25.6088 20.7065 24.9395 21 24.1579 21H14.2105ZM24.1579 18V9H14.2105V18H24.1579Z" fill="white"/>
</svg>
